<svg width="45" height="45" viewBox="0 0 45 45" fill="none" xmlns="http://www.w3.org/2000/svg">
<path d="M24.5 9.43548C24.5 8.36492 23.6063 7.5 22.5 7.5C21.3938 7.5 20.5 8.36492 20.5 9.43548V22.9839C20.5 24.0544 21.3938 24.9194 22.5 24.9194C23.6063 24.9194 24.5 24.0544 24.5 22.9839V9.43548ZM15.4688 14.7944C16.3188 14.1109 16.4313 12.8891 15.725 12.0665C15.0188 11.244 13.7562 11.1351 12.9062 11.8185C9.60625 14.4798 7.5 18.496 7.5 22.9839C7.5 30.998 14.2188 37.5 22.5 37.5C30.7812 37.5 37.5 30.998 37.5 22.9839C37.5 18.496 35.3875 14.4798 32.0875 11.8185C31.2375 11.1351 29.975 11.25 29.2687 12.0665C28.5625 12.8831 28.6812 14.1109 29.525 14.7944C31.9562 16.748 33.4937 19.6935 33.4937 22.9839C33.4937 28.8629 28.5687 33.629 22.4937 33.629C16.4187 33.629 11.4938 28.8629 11.4938 22.9839C11.4938 19.6935 13.0375 16.748 15.4625 14.7944H15.4688Z" fill="#777777"/>
</svg>
