<svg width="40" height="40" viewBox="0 0 40 40" fill="none" xmlns="http://www.w3.org/2000/svg">
<path d="M12 29.6667C10.1667 29.6667 8.68333 31.1667 8.68333 33C8.68333 34.8333 10.1667 36.3333 12 36.3333C13.8333 36.3333 15.3333 34.8333 15.3333 33C15.3333 31.1667 13.8333 29.6667 12 29.6667ZM2 3V6.33333H5.33333L11.3333 18.9833L9.08333 23.0667C8.81667 23.5333 8.66667 24.0833 8.66667 24.6667C8.66667 26.5 10.1667 28 12 28H32V24.6667H12.7C12.4667 24.6667 12.2833 24.4833 12.2833 24.25L12.3333 24.05L13.8333 21.3333H26.25C27.5 21.3333 28.6 20.65 29.1667 19.6167L35.1333 8.8C35.2708 8.54564 35.34 8.25997 35.3341 7.97088C35.3282 7.68179 35.2474 7.39918 35.0997 7.15065C34.9519 6.90212 34.7422 6.69616 34.491 6.55291C34.2398 6.40966 33.9558 6.334 33.6667 6.33333H9.01667L7.45 3H2ZM28.6667 29.6667C26.8333 29.6667 25.35 31.1667 25.35 33C25.35 34.8333 26.8333 36.3333 28.6667 36.3333C30.5 36.3333 32 34.8333 32 33C32 31.1667 30.5 29.6667 28.6667 29.6667Z" fill="#777777"/>
</svg>
