<svg width="50" height="42" viewBox="0 0 50 42" fill="none" xmlns="http://www.w3.org/2000/svg">
<path d="M39.875 9H10.125C8.95139 9 8 9.76749 8 10.7142V15.857C8 16.8037 8.95139 17.5712 10.125 17.5712H39.875C41.0486 17.5712 42 16.8037 42 15.857V10.7142C42 9.76749 41.0486 9 39.875 9Z" fill="white" stroke="white" stroke-linejoin="round"/>
<path d="M39.875 24.4297H10.125C8.95139 24.4297 8 25.1972 8 26.1439V31.2867C8 32.2334 8.95139 33.0009 10.125 33.0009H39.875C41.0486 33.0009 42 32.2334 42 31.2867V26.1439C42 25.1972 41.0486 24.4297 39.875 24.4297Z" fill="white" stroke="white" stroke-linejoin="round"/>
</svg>
