<svg width="45" height="45" viewBox="0 0 45 45" fill="none" xmlns="http://www.w3.org/2000/svg">
<path d="M37.0402 34.4887L30.2394 27.6879C31.8767 25.5082 32.7606 22.855 32.7576 20.1288C32.7576 13.1653 27.0923 7.5 20.1288 7.5C13.1653 7.5 7.5 13.1653 7.5 20.1288C7.5 27.0923 13.1653 32.7576 20.1288 32.7576C22.855 32.7606 25.5082 31.8767 27.6879 30.2394L34.4887 37.0402C34.833 37.3479 35.282 37.5122 35.7435 37.4993C36.2051 37.4864 36.6442 37.2972 36.9707 36.9707C37.2972 36.6442 37.4864 36.2051 37.4993 35.7435C37.5122 35.282 37.3479 34.833 37.0402 34.4887ZM11.1082 20.1288C11.1082 18.3447 11.6373 16.6007 12.6285 15.1172C13.6197 13.6338 15.0285 12.4776 16.6768 11.7949C18.3251 11.1121 20.1388 10.9335 21.8886 11.2816C23.6384 11.6296 25.2458 12.4887 26.5073 13.7503C27.7689 15.0118 28.628 16.6192 28.976 18.369C29.3241 20.1188 29.1455 21.9325 28.4627 23.5808C27.78 25.2291 26.6238 26.6379 25.1404 27.6291C23.6569 28.6203 21.9129 29.1494 20.1288 29.1494C17.7373 29.1465 15.4445 28.1952 13.7535 26.5041C12.0624 24.8131 11.1111 22.5203 11.1082 20.1288Z" fill="#AAAAAA"/>
</svg>
