<svg width="488" height="615" viewBox="0 0 488 615" fill="none" xmlns="http://www.w3.org/2000/svg">
<rect width="488" height="615" rx="5" fill="#F1FEF0"/>
<path d="M77.0955 10C4.59544 10 10.0954 16.624 10.0954 56" stroke="#74BD95" stroke-width="2"/>
<path d="M477.951 10.525C478.226 10.5524 478.471 10.3519 478.498 10.0772C478.526 9.80239 478.325 9.55738 478.051 9.52991L477.951 10.525ZM474.542 10.4122L474.447 9.92139V9.92139L474.542 10.4122ZM467.89 12.35L468.092 12.8078L467.89 12.35ZM462.787 15.8687L462.433 15.5161L462.787 15.8687ZM460.023 18.259C459.868 18.4878 459.928 18.7986 460.157 18.9533C460.386 19.1079 460.697 19.0479 460.851 18.8191L460.023 18.259ZM467.491 54.9833L467.257 55.4251H467.257L467.491 54.9833ZM468.713 41.8443L468.239 41.6863L468.713 41.8443ZM425.514 18.5863L425.585 18.0915L425.249 19.0108L425.514 18.5863ZM478.051 9.52991C476.791 9.40399 475.55 9.70717 474.447 9.92139L474.638 10.903C475.816 10.6742 476.875 10.4174 477.951 10.525L478.051 9.52991ZM474.447 9.92139C472.16 10.3655 469.869 10.935 467.689 11.8923L468.092 12.8078C470.172 11.894 472.38 11.3415 474.638 10.903L474.447 9.92139ZM467.689 11.8923C465.688 12.7714 463.973 13.9678 462.433 15.5161L463.142 16.2213C464.597 14.7579 466.209 13.6345 468.092 12.8078L467.689 11.8923ZM462.433 15.5161C461.609 16.3442 460.717 17.232 460.023 18.259L460.851 18.8191C461.483 17.8846 462.303 17.0642 463.142 16.2213L462.433 15.5161ZM458.177 22.1473C452.985 30.2912 450.844 36.3532 452.306 41.5637C453.767 46.7676 458.768 50.9252 467.257 55.4251L467.725 54.5415C459.239 50.0433 454.605 46.0549 453.269 41.2935C451.935 36.5388 453.836 30.8163 459.02 22.6849L458.177 22.1473ZM467.257 55.4251C467.894 55.763 468.552 56.1032 469.231 56.4462L469.682 55.5538C469.009 55.2135 468.357 54.8762 467.725 54.5415L467.257 55.4251ZM460.808 26.2854C460.512 26.6886 460.512 26.6886 460.512 26.6885C460.512 26.6886 460.512 26.6886 460.512 26.6886C460.512 26.6888 460.512 26.689 460.513 26.6893C460.514 26.69 460.515 26.6912 460.518 26.6928C460.522 26.6961 460.529 26.7012 460.538 26.7081C460.557 26.7219 460.585 26.743 460.622 26.7712C460.695 26.8274 460.804 26.9118 460.942 27.0224C461.218 27.2437 461.612 27.5696 462.077 27.9856C463.009 28.8185 464.22 30.0068 465.349 31.4324C467.629 34.3119 469.462 38.0163 468.239 41.6863L469.188 42.0024C470.58 37.8247 468.459 33.7496 466.133 30.8116C464.958 29.3284 463.703 28.0984 462.744 27.2402C462.263 26.8106 461.856 26.4728 461.567 26.2417C461.423 26.1261 461.308 26.0371 461.229 25.9766C461.189 25.9463 461.158 25.9232 461.137 25.9073C461.127 25.8994 461.118 25.8934 461.113 25.8891C461.11 25.887 461.108 25.8854 461.106 25.8842C461.105 25.8836 461.105 25.8832 461.104 25.8828C461.104 25.8826 461.104 25.8825 461.104 25.8824C461.103 25.8822 461.103 25.8821 460.808 26.2854ZM468.239 41.6863C466.912 45.6681 466.6 49.0085 466.622 51.3613C466.633 52.5375 466.727 53.4666 466.82 54.1056C466.866 54.4252 466.912 54.6723 466.947 54.8415C466.964 54.9261 466.979 54.9913 466.989 55.0364C466.995 55.0589 466.999 55.0764 467.002 55.0888C467.004 55.095 467.005 55.0999 467.006 55.1035C467.006 55.1053 467.007 55.1068 467.007 55.108C467.007 55.1086 467.007 55.1091 467.007 55.1095C467.007 55.1097 467.007 55.11 467.007 55.1101C467.007 55.1103 467.008 55.1105 467.491 54.9833C467.975 54.8561 467.975 54.8563 467.975 54.8564C467.975 54.8564 467.975 54.8566 467.975 54.8566C467.975 54.8567 467.975 54.8568 467.975 54.8567C467.975 54.8566 467.975 54.8561 467.974 54.8554C467.974 54.8539 467.973 54.8511 467.972 54.847C467.97 54.8389 467.967 54.8257 467.963 54.8076C467.954 54.7713 467.942 54.7151 467.926 54.6397C467.895 54.489 467.853 54.2613 467.809 53.9622C467.723 53.3639 467.632 52.4797 467.622 51.3521C467.601 49.0973 467.9 45.8681 469.188 42.0024L468.239 41.6863ZM457.651 21.7838C453.902 25.7359 448.6 26.4892 442.848 25.4038C437.096 24.3181 430.987 21.4048 425.778 18.1618L425.249 19.0108C430.511 22.2863 436.74 25.2686 442.663 26.3865C448.588 27.5046 454.3 26.7694 458.376 22.472L457.651 21.7838ZM425.514 18.5863C425.442 19.0812 425.442 19.0812 425.442 19.0812C425.443 19.0812 425.443 19.0813 425.443 19.0813C425.444 19.0814 425.444 19.0815 425.445 19.0816C425.446 19.0818 425.449 19.0821 425.451 19.0825C425.457 19.0833 425.465 19.0844 425.476 19.0859C425.497 19.0888 425.528 19.093 425.568 19.0982C425.649 19.1087 425.766 19.1233 425.917 19.1404C426.219 19.1747 426.653 19.2188 427.187 19.2588C428.255 19.3389 429.728 19.4031 431.346 19.3389C432.962 19.2747 434.735 19.082 436.399 18.6427C438.06 18.2044 439.643 17.5123 440.848 16.4279L440.179 15.6845C439.135 16.6242 437.718 17.2603 436.144 17.6759C434.573 18.0905 432.878 18.2773 431.306 18.3397C429.737 18.402 428.303 18.3397 427.262 18.2616C426.742 18.2226 426.32 18.1798 426.03 18.1468C425.885 18.1303 425.773 18.1163 425.697 18.1065C425.659 18.1016 425.631 18.0978 425.612 18.0952C425.603 18.0939 425.596 18.0929 425.591 18.0923C425.589 18.092 425.587 18.0918 425.586 18.0916C425.586 18.0915 425.585 18.0915 425.585 18.0915C425.585 18.0915 425.585 18.0915 425.585 18.0914C425.585 18.0915 425.585 18.0915 425.514 18.5863ZM440.848 16.4279C441.841 15.5346 443.225 15.1981 444.82 15.2436C446.413 15.289 448.156 15.7149 449.789 16.276C451.417 16.8357 452.911 17.5213 454 18.0684C454.544 18.3416 454.985 18.5794 455.289 18.7485C455.442 18.833 455.559 18.9003 455.639 18.9462C455.679 18.9691 455.709 18.9867 455.728 18.9984C455.738 19.0042 455.746 19.0086 455.751 19.0114C455.753 19.0128 455.755 19.0139 455.756 19.0145C455.756 19.0148 455.757 19.015 455.757 19.0152C455.757 19.0152 455.757 19.0153 455.757 19.0153C455.757 19.0153 455.757 19.0152 456.014 18.5861C456.27 18.157 456.27 18.1569 456.27 18.1568C456.27 18.1567 456.27 18.1566 456.269 18.1565C456.269 18.1562 456.268 18.1558 456.268 18.1553C456.266 18.1544 456.264 18.1531 456.261 18.1513C456.255 18.1479 456.246 18.1429 456.235 18.1364C456.213 18.1234 456.181 18.1046 456.139 18.0803C456.055 18.0318 455.932 17.9617 455.775 17.8743C455.46 17.6995 455.007 17.455 454.449 17.1748C453.335 16.615 451.798 15.9091 450.114 15.3303C448.434 14.753 446.583 14.2934 444.848 14.244C443.115 14.1946 441.436 14.5538 440.179 15.6845L440.848 16.4279Z" fill="#74BD95"/>
<g clip-path="url(#clip0_3100_7981)">
<path d="M423.006 168.413C422.506 169.413 246.106 270.613 242.506 273.413C242.506 273.413 67.5065 172.913 60.5061 168.413C59.4511 167.766 61.0182 165.617 68.8178 157.663C71.082 155.243 76.5061 152.413 76.5061 152.413L99.1737 139.913C137.274 116.396 225.006 68.4126 225.006 68.4126L227.006 67.413C230.506 64.8432 241.81 64.0569 244.006 64.413C247.25 64.9391 248.688 63.913 258.006 68.413C267.324 72.913 324.248 106.088 325.494 106.913L337.006 113.413L410.006 154.413C410.006 154.413 414.506 156.913 415.506 158.413C415.506 158.413 423.506 167.413 423.006 168.413Z" fill="#FFFA5F" fill-opacity="0.9"/>
<path d="M398.487 166.539C398.057 167.352 246.363 249.636 243.268 251.913C243.268 251.913 92.7786 170.198 86.7586 166.539C85.8514 166.013 87.199 164.266 93.9062 157.799C95.8533 155.83 100.518 153.529 100.518 153.529L120.01 143.366C152.774 124.245 228.219 85.2304 228.219 85.2304L229.938 84.4177C232.948 82.3282 242.669 81.6889 244.557 81.9784C247.347 82.4062 248.584 81.5719 256.597 85.2308C264.609 88.8896 313.561 115.864 314.633 116.534L324.532 121.819L387.307 155.156C387.307 155.156 391.177 157.188 392.037 158.408C392.037 158.408 398.917 165.726 398.487 166.539Z" fill="#FCF75D"/>
<path d="M59.6132 167.503C60.7294 167.435 236.651 269.465 240.877 271.179C240.877 271.179 241.498 472.983 241.108 481.296C241.076 482.533 238.431 482.252 227.641 479.483C224.412 478.735 219.247 475.457 219.247 475.457L197.077 462.093C157.645 440.887 72.1831 388.966 72.1831 388.966L70.3165 387.736C66.3396 385.992 59.9993 376.601 59.2082 374.522C58.0394 371.45 56.431 370.719 55.6613 360.4C54.8915 350.081 55.1087 284.196 55.1984 282.704L55.0612 269.485L54.003 185.766C54.003 185.766 53.914 180.619 54.7118 179.002C54.7118 179.002 58.4971 167.571 59.6132 167.503Z" fill="#FCF06F" fill-opacity="0.9"/>
<path d="M68.3599 190.134C69.3243 190.084 222.262 280.699 225.93 282.232C225.93 282.232 228.118 458.618 227.848 465.88C227.831 466.961 225.542 466.694 216.19 464.186C213.392 463.506 208.899 460.598 208.899 460.598L189.622 448.737C155.355 429.879 81.0393 383.801 81.0393 383.801L79.4154 382.71C75.9627 381.154 70.4039 372.893 69.7029 371.07C68.6672 368.376 67.2706 367.723 66.5207 358.698C65.7708 349.673 65.4197 292.09 65.485 290.786L65.2582 279.231L63.6586 206.05C63.6586 206.05 63.5396 201.551 64.2161 200.145C64.2161 200.145 67.3954 190.185 68.3599 190.134Z" fill="#FAEE6C"/>
<path d="M241.394 481.589C240.776 480.657 241.004 277.289 240.371 272.773C240.371 272.773 414.742 171.185 422.133 167.361C423.219 166.768 424.301 169.198 427.307 179.925C428.276 183.095 428.025 189.207 428.025 189.207L427.559 215.089C428.947 259.84 426.799 359.814 426.799 359.814L426.668 362.046C427.15 366.362 422.196 376.552 420.792 378.278C418.719 380.828 418.891 382.587 410.345 388.42C401.798 394.253 344.659 427.056 343.322 427.726L331.949 434.464L260.011 477.301C260.011 477.301 255.6 479.955 253.802 480.074C253.802 480.074 242.011 482.521 241.394 481.589Z" fill="#E1B643" fill-opacity="0.8"/>
<path d="M256.287 464.05C255.773 463.25 258.537 286.952 258.055 283.045C258.055 283.045 407.933 192.777 414.28 189.368C415.213 188.841 416.104 190.934 418.53 200.195C419.316 202.93 419.025 208.232 419.025 208.232L418.3 230.674C418.918 269.451 415.824 356.143 415.824 356.143L415.684 358.08C416.041 361.815 411.69 370.711 410.472 372.225C408.673 374.462 408.798 375.984 401.441 381.149C394.084 386.313 344.977 415.472 343.829 416.069L334.052 422.054L272.207 460.097C272.207 460.097 268.415 462.454 266.88 462.58C266.88 462.58 256.802 464.85 256.287 464.05Z" fill="#E1C143" fill-opacity="0.8"/>
<path d="M321.988 321.325C322.254 317.308 323.855 313.567 326.507 310.766C329.159 307.964 332.691 306.282 336.477 306.017C340.264 305.753 344.06 306.923 347.194 309.32C350.328 311.718 352.597 315.188 353.6 319.116C356.446 330.202 342.335 339.733 342.335 339.733M346.135 363.464L346.189 363.464M247.402 147.656C251.163 146.221 255.23 146.114 258.883 147.354C262.537 148.594 265.54 151.102 267.361 154.432C269.182 157.762 269.703 161.7 268.833 165.549C267.962 169.397 265.756 172.908 262.605 175.459C253.72 182.674 239.168 173.83 239.168 173.83M221.668 188.59L221.702 188.632M129.027 312.006C130.613 308.305 133.365 305.309 136.797 303.547C140.229 301.785 144.119 301.372 147.779 302.38C151.438 303.388 154.63 305.753 156.789 309.055C158.949 312.358 159.937 316.385 159.578 320.423C158.58 331.824 142.104 336.127 142.104 336.127M140.535 358.967L140.589 358.972" stroke="white" stroke-opacity="0.9" stroke-width="8" stroke-linecap="round" stroke-linejoin="round"/>
</g>
<path d="M401.5 506H90.6042V514.897L102.917 517.368L90.6042 520.828V532.195L108.047 536.149L86.5 541.092V549H401.5V533.678L386.109 527.747L401.5 522.805V506Z" fill="#C0E0BD"/>
<path d="M208.373 524.68C208.747 524.733 209.053 524.88 209.293 525.12C209.533 525.333 209.653 525.693 209.653 526.2C209.68 526.867 209.747 527.56 209.853 528.28C209.96 529 210.08 529.707 210.213 530.4C210.347 531.093 210.493 531.747 210.653 532.36C210.84 532.973 211.027 533.52 211.213 534C211.347 534.293 211.36 534.52 211.253 534.68C211.173 534.84 211.107 534.933 211.053 534.96C210.813 535.067 210.533 535.107 210.213 535.08C209.92 535.027 209.68 534.893 209.493 534.68C208.64 533.613 208.067 532.32 207.773 530.8C207.48 529.253 207.32 527.6 207.293 525.84C207.267 525.44 207.347 525.133 207.533 524.92C207.72 524.707 208 524.627 208.373 524.68ZM203.733 529.88C203.973 530.147 204.04 530.427 203.933 530.72C203.88 530.853 203.8 530.973 203.693 531.08C203.533 531.16 203.307 531.227 203.013 531.28C202.747 531.333 202.467 531.347 202.173 531.32C201.907 531.293 201.68 531.213 201.493 531.08C201.307 530.947 201.24 530.747 201.293 530.48C201.293 529.653 201.56 528.707 202.093 527.64C202.627 526.547 203.28 525.467 204.053 524.4C204.827 523.333 205.653 522.333 206.533 521.4C207.413 520.44 208.227 519.667 208.973 519.08C209.187 518.947 209.507 518.88 209.933 518.88C210.387 518.88 210.693 518.96 210.853 519.12C211.013 519.28 211.08 519.467 211.053 519.68C211.027 519.893 210.947 520.107 210.813 520.32C210.707 520.507 210.573 520.707 210.413 520.92C210.253 521.107 210.12 521.253 210.013 521.36C208.68 522.72 207.507 524.08 206.493 525.44C205.507 526.773 204.587 528.253 203.733 529.88ZM220.053 522.96C221.28 522.48 222.547 522.213 223.853 522.16C225.187 522.107 226.307 522.227 227.213 522.52C227.453 522.6 227.613 522.707 227.693 522.84C227.8 522.973 227.853 523.107 227.853 523.24C227.88 523.347 227.88 523.453 227.853 523.56C227.827 523.64 227.813 523.693 227.813 523.72C227.68 523.933 227.52 524.12 227.333 524.28C227.173 524.44 226.987 524.52 226.773 524.52C225.627 524.52 224.667 524.56 223.893 524.64C223.12 524.693 222.347 524.84 221.573 525.08C221.333 525.16 221.133 525.187 220.973 525.16C220.84 525.107 220.72 525.053 220.613 525C220.533 524.92 220.453 524.853 220.373 524.8C220.32 524.747 220.253 524.733 220.173 524.76C220.12 524.787 220.093 524.933 220.093 525.2C220.093 525.813 220.107 526.48 220.133 527.2C220.16 527.893 220.2 528.587 220.253 529.28C220.307 529.973 220.347 530.64 220.373 531.28C220.427 531.92 220.48 532.493 220.533 533C220.56 533.347 220.467 533.707 220.253 534.08C220.04 534.453 219.747 534.613 219.373 534.56C219.107 534.507 218.827 534.32 218.533 534C218.24 533.68 218.067 533.347 218.013 533C217.8 531.693 217.64 530.253 217.533 528.68C217.453 527.107 217.413 525.52 217.413 523.92C217.44 522.32 217.493 520.787 217.573 519.32C217.68 517.827 217.813 516.493 217.973 515.32C218 515.187 218.093 515.08 218.253 515C218.413 514.893 218.587 514.827 218.773 514.8C218.987 514.773 219.2 514.773 219.413 514.8C219.627 514.827 219.8 514.893 219.933 515C220.04 515.08 220.173 515.24 220.333 515.48C220.52 515.693 220.587 515.907 220.533 516.12C220.453 516.573 220.373 517.107 220.293 517.72C220.24 518.307 220.187 518.92 220.133 519.56C220.107 520.173 220.08 520.787 220.053 521.4C220.053 521.987 220.053 522.507 220.053 522.96Z" fill="black"/>
<path d="M230.591 519.52C230.618 518.613 230.765 517.92 231.031 517.44C230.578 517.333 230.191 517.147 229.871 516.88C229.578 516.587 229.378 516.173 229.271 515.64C229.191 515.267 229.218 514.88 229.351 514.48C229.485 514.053 229.671 513.653 229.911 513.28C230.178 512.88 230.485 512.52 230.831 512.2C231.178 511.853 231.525 511.573 231.871 511.36C231.951 511.307 232.085 511.24 232.271 511.16C232.458 511.053 232.645 510.973 232.831 510.92C233.018 510.867 233.205 510.853 233.391 510.88C233.578 510.88 233.711 510.933 233.791 511.04C233.978 511.28 234.005 511.587 233.871 511.96C233.765 512.333 233.565 512.667 233.271 512.96C233.111 513.12 232.925 513.307 232.711 513.52C232.525 513.733 232.365 513.947 232.231 514.16C232.125 514.347 232.058 514.533 232.031 514.72C232.005 514.88 232.085 515.013 232.271 515.12C232.458 515.253 232.698 515.307 232.991 515.28C233.311 515.227 233.618 515.12 233.911 514.96C234.205 514.8 234.471 514.587 234.711 514.32C234.978 514.053 235.165 513.76 235.271 513.44C235.405 513.067 235.525 512.76 235.631 512.52C235.765 512.28 235.991 512.133 236.311 512.08C236.685 512.027 236.978 512.133 237.191 512.4C237.405 512.667 237.511 512.947 237.511 513.24C237.511 514.147 237.231 514.947 236.671 515.64C236.111 516.333 235.391 516.84 234.511 517.16C234.218 517.267 233.925 517.36 233.631 517.44C233.338 517.493 233.031 517.533 232.711 517.56C232.738 517.693 232.751 517.84 232.751 518C232.778 518.16 232.791 518.347 232.791 518.56C232.791 519.173 232.805 519.867 232.831 520.64C232.858 521.413 232.885 522.2 232.911 523C232.965 523.773 233.018 524.52 233.071 525.24C233.125 525.96 233.178 526.573 233.231 527.08C233.285 527.453 233.298 527.84 233.271 528.24C233.271 528.613 233.111 528.813 232.791 528.84C232.631 528.84 232.445 528.8 232.231 528.72C232.018 528.613 231.805 528.48 231.591 528.32C231.405 528.16 231.231 527.973 231.071 527.76C230.911 527.52 230.818 527.28 230.791 527.04C230.711 526.533 230.645 525.96 230.591 525.32C230.565 524.653 230.538 523.973 230.511 523.28C230.511 522.587 230.511 521.907 230.511 521.24C230.538 520.573 230.565 520 230.591 519.52ZM242.191 528.44C242.431 528.413 242.698 528.4 242.991 528.4C243.285 528.4 243.551 528.427 243.791 528.48C244.031 528.507 244.231 528.573 244.391 528.68C244.578 528.76 244.671 528.88 244.671 529.04C244.671 529.253 244.551 529.533 244.311 529.88C244.071 530.227 243.685 530.44 243.151 530.52C242.591 530.6 241.845 530.733 240.911 530.92C240.005 531.08 239.058 531.253 238.071 531.44C237.111 531.6 236.178 531.773 235.271 531.96C234.365 532.12 233.658 532.253 233.151 532.36C232.965 532.413 232.738 532.44 232.471 532.44C232.231 532.44 231.991 532.413 231.751 532.36C231.511 532.28 231.298 532.173 231.111 532.04C230.925 531.88 230.831 531.667 230.831 531.4C230.831 530.893 231.151 530.533 231.791 530.32C232.218 530.187 232.791 530.04 233.511 529.88C234.231 529.693 235.018 529.52 235.871 529.36C235.898 528.72 235.938 528.027 235.991 527.28C236.071 526.533 236.165 525.773 236.271 525C236.405 524.227 236.565 523.467 236.751 522.72C236.938 521.973 237.165 521.293 237.431 520.68C237.511 520.52 237.605 520.347 237.711 520.16C237.845 519.947 237.991 519.76 238.151 519.6C238.311 519.44 238.485 519.333 238.671 519.28C238.885 519.2 239.111 519.227 239.351 519.36C239.725 519.573 239.885 519.84 239.831 520.16C239.805 520.453 239.738 520.787 239.631 521.16C239.498 521.64 239.351 522.2 239.191 522.84C239.031 523.48 238.871 524.16 238.711 524.88C238.551 525.573 238.405 526.28 238.271 527C238.138 527.72 238.018 528.4 237.911 529.04C238.845 528.88 239.698 528.76 240.471 528.68C241.245 528.573 241.818 528.493 242.191 528.44ZM238.631 535.68C239.431 535.653 240.071 535.827 240.551 536.2C241.058 536.573 241.405 537.053 241.591 537.64C241.805 538.2 241.845 538.8 241.711 539.44C241.605 540.08 241.338 540.64 240.911 541.12C240.351 541.733 239.671 542.213 238.871 542.56C238.071 542.907 237.365 543.053 236.751 543C236.271 542.973 235.818 542.76 235.391 542.36C234.965 541.96 234.751 541.333 234.751 540.48C234.751 539.413 234.965 538.48 235.391 537.68C235.845 536.853 236.431 536.133 237.151 535.52C237.525 535.227 237.805 535.12 237.991 535.2C238.178 535.28 238.311 535.453 238.391 535.72C238.445 535.693 238.525 535.68 238.631 535.68ZM238.231 537.2C238.045 537.547 237.818 538 237.551 538.56C237.311 539.12 237.165 539.627 237.111 540.08C237.111 540.293 237.191 540.413 237.351 540.44C237.538 540.467 237.698 540.453 237.831 540.4C238.285 540.213 238.685 539.933 239.031 539.56C239.378 539.16 239.551 538.667 239.551 538.08C239.551 537.813 239.458 537.573 239.271 537.36C239.085 537.12 238.845 536.973 238.551 536.92C238.498 536.92 238.458 536.92 238.431 536.92C238.405 536.893 238.378 536.88 238.351 536.88C238.325 536.933 238.298 536.987 238.271 537.04C238.271 537.093 238.258 537.147 238.231 537.2Z" fill="black"/>
<path d="M254.739 523C254.499 523.773 254.246 524.56 253.979 525.36C253.739 526.133 253.499 526.907 253.259 527.68C254.086 527.707 254.792 527.92 255.379 528.32C255.992 528.72 256.379 529.187 256.539 529.72C256.699 530.173 256.739 530.653 256.659 531.16C256.606 531.64 256.459 532.12 256.219 532.6C256.006 533.08 255.726 533.547 255.379 534C255.032 534.427 254.646 534.8 254.219 535.12C253.952 535.333 253.526 535.56 252.939 535.8C252.379 536.013 251.859 536.08 251.379 536C250.606 535.867 250.086 535.427 249.819 534.68C249.552 533.907 249.486 533.093 249.619 532.24C249.752 531.333 249.899 530.533 250.059 529.84C250.246 529.12 250.432 528.427 250.619 527.76C250.832 527.093 251.059 526.413 251.299 525.72C251.539 525.027 251.806 524.227 252.099 523.32C251.299 523.427 250.526 523.627 249.779 523.92C249.032 524.213 248.392 524.52 247.859 524.84C247.512 525.053 247.126 525.093 246.699 524.96C246.299 524.827 246.099 524.493 246.099 523.96C246.046 523.533 246.272 523.12 246.779 522.72C247.286 522.32 247.912 521.987 248.659 521.72C249.406 521.427 250.179 521.213 250.979 521.08C251.779 520.92 252.446 520.867 252.979 520.92C253.726 521 254.219 521.253 254.459 521.68C254.726 522.08 254.819 522.52 254.739 523ZM264.139 522.96C265.339 522.347 266.499 522.013 267.619 521.96C268.766 521.907 269.792 522.027 270.699 522.32C270.939 522.4 271.099 522.507 271.179 522.64C271.286 522.773 271.339 522.907 271.339 523.04C271.366 523.147 271.366 523.253 271.339 523.36C271.312 523.44 271.299 523.493 271.299 523.52C271.006 524 270.659 524.24 270.259 524.24C269.699 524.24 269.206 524.253 268.779 524.28C268.379 524.28 268.006 524.307 267.659 524.36C267.339 524.387 267.019 524.44 266.699 524.52C266.406 524.6 266.072 524.693 265.699 524.8C265.459 524.88 265.259 524.907 265.099 524.88C264.966 524.827 264.846 524.773 264.739 524.72C264.632 524.64 264.539 524.573 264.459 524.52C264.406 524.467 264.339 524.453 264.259 524.48C264.206 524.507 264.179 524.653 264.179 524.92C264.179 526.173 264.219 527.333 264.299 528.4C264.406 529.467 264.499 530.507 264.579 531.52C264.606 531.867 264.512 532.227 264.299 532.6C264.112 532.973 263.832 533.133 263.459 533.08C263.192 533.027 262.912 532.84 262.619 532.52C262.326 532.2 262.152 531.867 262.099 531.52C261.699 528.96 261.512 526.373 261.539 523.76C261.592 521.147 261.766 518.707 262.059 516.44C262.086 516.173 262.179 515.987 262.339 515.88C262.526 515.747 262.712 515.68 262.899 515.68C263.112 515.653 263.326 515.68 263.539 515.76C263.752 515.813 263.926 515.893 264.059 516C264.166 516.08 264.299 516.24 264.459 516.48C264.619 516.693 264.672 516.907 264.619 517.12C264.459 518.027 264.339 519 264.259 520.04C264.179 521.053 264.139 522.027 264.139 522.96ZM254.899 517.8C254.979 518.013 255.046 518.293 255.099 518.64C255.179 518.96 255.206 519.267 255.179 519.56C255.179 519.827 255.099 520.053 254.939 520.24C254.779 520.4 254.499 520.427 254.099 520.32C253.859 520.24 253.686 520.107 253.579 519.92C253.472 519.707 253.352 519.493 253.219 519.28C252.686 518.24 252.059 517.227 251.339 516.24C250.619 515.227 249.872 514.32 249.099 513.52C248.672 513.147 248.406 512.773 248.299 512.4C248.192 512 248.326 511.653 248.699 511.36C249.046 511.147 249.392 511.107 249.739 511.24C250.112 511.347 250.446 511.533 250.739 511.8C251.219 512.253 251.686 512.747 252.139 513.28C252.592 513.813 252.992 514.36 253.339 514.92C253.712 515.453 254.032 515.973 254.299 516.48C254.566 516.96 254.766 517.4 254.899 517.8ZM252.019 533.44C252.312 533.28 252.606 533.093 252.899 532.88C253.219 532.667 253.499 532.427 253.739 532.16C253.979 531.893 254.152 531.613 254.259 531.32C254.366 531 254.366 530.68 254.259 530.36C254.152 530.04 253.966 529.8 253.699 529.64C253.459 529.48 253.179 529.347 252.859 529.24C252.672 529.933 252.499 530.64 252.339 531.36C252.206 532.053 252.099 532.747 252.019 533.44Z" fill="black"/>
<path d="M282.395 523.96C282.235 524.52 282.075 525.16 281.915 525.88C281.755 526.573 281.608 527.293 281.475 528.04C281.368 528.787 281.288 529.52 281.235 530.24C281.208 530.933 281.235 531.573 281.315 532.16C281.315 532.693 281.168 533.08 280.875 533.32C280.581 533.533 280.328 533.613 280.115 533.56C279.741 533.48 279.448 533.28 279.235 532.96C279.021 532.613 278.861 532.267 278.755 531.92C278.648 531.547 278.595 531.013 278.595 530.32C278.621 529.627 278.675 528.88 278.755 528.08C278.835 527.253 278.941 526.427 279.075 525.6C279.208 524.773 279.355 524.027 279.515 523.36C279.195 523.36 278.821 523.427 278.395 523.56C277.968 523.667 277.515 523.813 277.035 524C276.581 524.187 276.115 524.4 275.635 524.64C275.181 524.853 274.755 525.053 274.355 525.24C274.061 525.373 273.688 525.373 273.235 525.24C272.808 525.08 272.501 524.853 272.315 524.56C272.128 524.267 272.168 523.987 272.435 523.72C272.701 523.427 272.981 523.173 273.275 522.96C273.648 522.693 274.101 522.44 274.635 522.2C275.195 521.933 275.768 521.693 276.355 521.48C276.941 521.267 277.528 521.107 278.115 521C278.701 520.867 279.221 520.8 279.675 520.8C280.715 520.853 281.475 521.173 281.955 521.76C282.461 522.347 282.608 523.08 282.395 523.96ZM290.915 530.32C290.915 530.773 290.835 531.08 290.675 531.24C290.515 531.373 290.275 531.44 289.955 531.44C289.848 531.44 289.715 531.413 289.555 531.36C289.395 531.307 289.235 531.227 289.075 531.12C288.915 530.987 288.768 530.84 288.635 530.68C288.528 530.52 288.461 530.333 288.435 530.12C288.328 528.813 288.261 527.6 288.235 526.48C288.208 525.36 288.195 524.293 288.195 523.28C288.195 522.267 288.221 521.307 288.275 520.4C288.328 519.467 288.381 518.547 288.435 517.64C288.435 517.347 288.555 517.107 288.795 516.92C289.035 516.707 289.301 516.6 289.595 516.6C290.021 516.6 290.355 516.813 290.595 517.24C290.861 517.667 290.981 518.067 290.955 518.44C290.901 519.56 290.848 520.6 290.795 521.56C290.768 522.52 290.755 523.467 290.755 524.4C290.755 525.333 290.768 526.28 290.795 527.24C290.821 528.173 290.861 529.2 290.915 530.32Z" fill="black"/>
<path d="M10.0884 604.413C9.81662 604.365 9.55671 604.545 9.50788 604.817C9.45905 605.089 9.6398 605.349 9.91159 605.398L10.0884 604.413ZM13.478 604.8L13.533 605.297L13.478 604.8ZM20.2605 603.419L20.0984 602.946L20.2605 603.419ZM25.6232 600.357L25.9464 600.738L25.6232 600.357ZM28.564 598.227C28.7375 598.012 28.704 597.697 28.4891 597.524C28.2743 597.35 27.9595 597.384 27.786 597.598L28.564 598.227ZM23.9962 561.454L24.2626 561.031V561.031L23.9962 561.454ZM21.7492 574.3L22.2088 574.497L21.7492 574.3ZM62.9923 600.633L62.8826 601.121L63.2872 600.229L62.9923 600.633ZM9.91159 605.398C11.1566 605.621 12.4162 605.421 13.533 605.297L13.4229 604.304C12.2309 604.436 11.1537 604.605 10.0884 604.413L9.91159 605.398ZM13.533 605.297C15.8473 605.041 18.1753 604.662 20.4226 603.892L20.0984 602.946C17.9524 603.681 15.7079 604.05 13.4229 604.304L13.533 605.297ZM20.4226 603.892C22.4863 603.184 24.2898 602.142 25.9464 600.738L25.3 599.975C23.7348 601.301 22.0398 602.28 20.0984 602.946L20.4226 603.892ZM25.9464 600.738C26.8321 599.988 27.791 599.184 28.564 598.227L27.786 597.598C27.0834 598.468 26.2018 599.211 25.3 599.975L25.9464 600.738ZM30.709 594.543C36.5218 586.932 39.1332 581.127 38.0824 575.873C37.0332 570.627 32.3716 566.135 24.2626 561.031L23.7299 561.877C31.8384 566.981 36.1433 571.277 37.1018 576.069C38.0587 580.853 35.719 586.336 29.9143 593.936L30.709 594.543ZM24.2626 561.031C23.6535 560.648 23.0244 560.26 22.3751 559.869L21.8587 560.725C22.5029 561.114 23.1266 561.497 23.7299 561.877L24.2626 561.031ZM28.412 590.253C28.7365 589.872 28.7366 589.872 28.7366 589.872C28.7366 589.872 28.7366 589.872 28.7365 589.872C28.7364 589.872 28.7361 589.872 28.7356 589.871C28.7347 589.871 28.7332 589.869 28.7312 589.868C28.727 589.864 28.7206 589.859 28.7119 589.851C28.6946 589.836 28.6683 589.813 28.6338 589.782C28.5648 589.721 28.463 589.629 28.3339 589.509C28.0757 589.27 27.7088 588.917 27.2778 588.471C26.4147 587.577 25.3 586.31 24.2866 584.817C22.2387 581.799 20.7052 578.009 22.2088 574.497L21.2895 574.103C19.5725 578.114 21.3704 582.3 23.4591 585.378C24.514 586.933 25.6689 588.244 26.5583 589.165C27.0036 589.627 27.3837 589.992 27.6534 590.242C27.7883 590.367 27.8956 590.464 27.9699 590.53C28.007 590.563 28.0358 590.588 28.0557 590.606C28.0656 590.614 28.0733 590.621 28.0786 590.625C28.0813 590.628 28.0834 590.629 28.0849 590.631C28.0856 590.631 28.0862 590.632 28.0867 590.632C28.0869 590.632 28.0871 590.633 28.0872 590.633C28.0874 590.633 28.0876 590.633 28.412 590.253ZM22.2088 574.497C23.8435 570.678 24.4166 567.411 24.5792 565.091C24.6605 563.931 24.6393 563.007 24.5969 562.37C24.5758 562.051 24.5493 561.804 24.5278 561.635C24.517 561.55 24.5075 561.484 24.5005 561.439C24.4969 561.416 24.494 561.399 24.4919 561.386C24.4909 561.38 24.49 561.375 24.4894 561.371C24.489 561.369 24.4888 561.368 24.4885 561.367C24.4884 561.366 24.4883 561.366 24.4883 561.365C24.4882 561.365 24.4882 561.365 24.4882 561.365C24.4881 561.364 24.4881 561.364 23.9962 561.454C23.5044 561.544 23.5044 561.544 23.5043 561.544C23.5043 561.544 23.5043 561.544 23.5043 561.543C23.5043 561.543 23.5043 561.543 23.5043 561.543C23.5043 561.543 23.5044 561.544 23.5045 561.545C23.5048 561.546 23.5053 561.549 23.5059 561.553C23.5073 561.561 23.5095 561.574 23.5123 561.592C23.518 561.629 23.5262 561.685 23.5358 561.76C23.5549 561.911 23.5794 562.139 23.5991 562.436C23.6387 563.032 23.6596 563.91 23.5817 565.021C23.426 567.242 22.8755 570.398 21.2895 574.103L22.2088 574.497ZM31.2039 594.943C35.2503 591.347 40.5965 591.025 46.2464 592.55C51.8968 594.075 57.7585 597.429 62.6974 601.037L63.2872 600.229C58.2985 596.586 52.3233 593.155 46.507 591.584C40.6901 590.014 34.9398 590.285 30.5396 594.196L31.2039 594.943ZM62.9923 600.633C63.102 600.145 63.1019 600.145 63.1017 600.145C63.1016 600.145 63.1013 600.145 63.1011 600.145C63.1007 600.145 63.1001 600.145 63.0993 600.144C63.0978 600.144 63.0956 600.144 63.0928 600.143C63.0873 600.142 63.0792 600.14 63.0688 600.138C63.0479 600.133 63.0174 600.127 62.9776 600.118C62.8982 600.102 62.7821 600.078 62.6332 600.049C62.3355 599.991 61.9062 599.914 61.3767 599.832C60.3185 599.668 58.8554 599.488 57.2379 599.424C55.6223 599.359 53.84 599.408 52.1474 599.709C50.4585 600.009 48.8265 600.565 47.5398 601.538L48.1429 602.336C49.2577 601.493 50.7202 600.978 52.3224 600.693C53.9208 600.409 55.6261 600.36 57.1978 600.423C58.7678 600.486 60.1919 600.661 61.224 600.82C61.7397 600.9 62.1564 600.975 62.4433 601.031C62.5868 601.059 62.6977 601.081 62.7722 601.097C62.8095 601.105 62.8376 601.111 62.8562 601.115C62.8655 601.117 62.8723 601.118 62.8768 601.119C62.879 601.12 62.8806 601.12 62.8816 601.12C62.882 601.12 62.8824 601.121 62.8826 601.121C62.8826 601.121 62.8827 601.121 62.8827 601.121C62.8827 601.121 62.8826 601.121 62.9923 600.633ZM47.5398 601.538C46.4799 602.339 45.0733 602.561 43.4855 602.39C41.9002 602.219 40.1953 601.661 38.6115 600.979C37.0318 600.299 35.5959 599.505 34.5532 598.88C34.0325 598.567 33.6114 598.298 33.3211 598.108C33.1761 598.012 33.0638 597.937 32.9882 597.885C32.9505 597.859 32.9219 597.84 32.903 597.827C32.8935 597.82 32.8865 597.815 32.882 597.812C32.8797 597.81 32.878 597.809 32.877 597.809C32.8765 597.808 32.8761 597.808 32.8759 597.808C32.8758 597.808 32.8758 597.808 32.8758 597.808C32.8758 597.808 32.8758 597.808 32.5882 598.217C32.3005 598.626 32.3006 598.626 32.3008 598.626C32.3009 598.626 32.3011 598.626 32.3013 598.626C32.3018 598.626 32.3024 598.627 32.3031 598.627C32.3046 598.629 32.3068 598.63 32.3095 598.632C32.3151 598.636 32.3231 598.641 32.3336 598.649C32.3545 598.663 32.3852 598.684 32.4251 598.712C32.505 598.766 32.622 598.845 32.772 598.943C33.0721 599.14 33.5049 599.417 34.039 599.737C35.1058 600.377 36.5827 601.194 38.2159 601.898C39.8451 602.599 41.6534 603.198 43.3783 603.384C45.1007 603.57 46.8015 603.35 48.1429 602.336L47.5398 601.538Z" fill="#74BD95"/>
<path d="M395.986 604.566C480.986 607.066 477.986 600.566 477.986 535.566" stroke="#74BD95" stroke-width="2"/>
<defs>
<clipPath id="clip0_3100_7981">
<rect width="370" height="425" fill="white" transform="translate(59 68.5)"/>
</clipPath>
</defs>
</svg>
