<svg width="1430" height="70" viewBox="0 0 1430 70" fill="none" xmlns="http://www.w3.org/2000/svg">
<g opacity="0.2">
<path fill-rule="evenodd" clip-rule="evenodd" d="M1379.93 35.25C1380.86 35.25 1381.75 35.6187 1382.4 36.2751C1383.06 36.9315 1383.43 37.8217 1383.43 38.75V61.5C1383.43 62.4283 1383.06 63.3185 1382.4 63.9749C1381.75 64.6313 1380.86 65 1379.93 65C1379 65 1378.11 64.6313 1377.45 63.9749C1376.8 63.3185 1376.43 62.4283 1376.43 61.5V38.75C1376.43 37.8217 1376.8 36.9315 1377.45 36.2751C1378.11 35.6187 1379 35.25 1379.93 35.25Z" fill="#0FA958"/>
<path d="M1375.59 19.6864C1382.14 25.2584 1384.31 33.4519 1380.45 37.9844C1376.59 42.5204 1369.07 44.3089 1360.53 37.9844C1352.89 32.3354 1348.89 18.9444 1352.75 14.4154C1356.61 9.88642 1369.05 14.1144 1375.59 19.6864Z" fill="#0FA958"/>
<path fill-rule="evenodd" clip-rule="evenodd" d="M1375.16 31.0206C1374.69 29.2531 1373.38 26.9955 1371.05 25.018C1368.63 22.946 1364.82 20.958 1361.35 20.02C1360.34 19.7323 1359.3 19.5585 1358.25 19.5021C1358.25 20.5241 1358.46 21.966 1359 23.6565C1360.15 27.286 1362.36 30.6355 1364.69 32.361C1367.91 34.7446 1370.33 35.1681 1371.79 35.0736C1373.25 34.9791 1374.37 34.3351 1375.12 33.4496C1375.14 33.4216 1375.64 32.8231 1375.16 31.0206M1380.45 37.9856C1384.31 33.4531 1382.14 25.2596 1375.59 19.6876C1369.05 14.1156 1356.61 9.88055 1352.75 14.4131C1348.88 18.9456 1352.89 32.3366 1360.53 37.9856C1369.08 44.3101 1376.59 42.5216 1380.45 37.9856Z" fill="#0FA958"/>
<path d="M1388.37 27.7697C1381.67 31.9627 1379.42 40.0337 1381.81 43.8487C1384.2 47.6637 1390.69 51.1637 1399.25 46.4527C1406.9 42.2422 1411.47 29.7297 1409.08 25.9147C1406.69 22.0997 1395.08 23.5732 1388.37 27.7697Z" fill="#0FA958"/>
<path fill-rule="evenodd" clip-rule="evenodd" d="M1388.26 38.3526C1388.86 36.7041 1390.14 34.9226 1392.09 33.6976C1394.39 32.2626 1397.9 31.1251 1401.06 30.7996C1401.55 30.7506 1402 30.7215 1402.4 30.7122C1402.17 31.576 1401.87 32.4208 1401.51 33.2392C1400.06 36.5642 1397.85 39.2277 1395.88 40.3197C1392.96 41.9192 1391.01 41.8386 1389.94 41.5657C1389.15 41.3773 1388.43 40.9468 1387.89 40.3336L1387.88 40.2147C1387.9 39.5772 1388.03 38.9475 1388.26 38.3526ZM1404.47 30.8906L1404.56 30.9187C1404.56 30.9163 1404.53 30.907 1404.47 30.8906ZM1381.81 43.8477C1379.42 40.0327 1381.67 31.9616 1388.37 27.7686C1395.08 23.5756 1406.69 22.0986 1409.08 25.9136C1411.46 29.7286 1406.9 42.2411 1399.25 46.4517C1390.68 51.1626 1384.2 47.6627 1381.81 43.8477Z" fill="#0FA958"/>
</g>
<path fill-rule="evenodd" clip-rule="evenodd" d="M1378.46 37.3477C1378.93 37.3477 1379.37 37.532 1379.7 37.8602C1380.03 38.1884 1380.21 38.6335 1380.21 39.0977V58.3477C1380.21 58.8118 1380.03 59.2569 1379.7 59.5851C1379.37 59.9133 1378.93 60.0977 1378.46 60.0977C1378 60.0977 1377.55 59.9133 1377.22 59.5851C1376.9 59.2569 1376.71 58.8118 1376.71 58.3477V39.0977C1376.71 38.6335 1376.9 38.1884 1377.22 37.8602C1377.55 37.532 1378 37.3477 1378.46 37.3477Z" fill="#0FA958"/>
<path fill-rule="evenodd" clip-rule="evenodd" d="M1352.53 22.1001C1353.93 26.4751 1356.66 30.8816 1360.1 33.4296C1364.11 36.3976 1367.73 37.3566 1370.67 37.1641C1372 37.0902 1373.31 36.7453 1374.52 36.1503C1375.72 35.5553 1376.79 34.7226 1377.66 33.7026C1379.11 31.9981 1379.55 29.4606 1378.77 26.5276C1377.99 23.6016 1376.03 20.4551 1373 17.8721C1369.94 15.2646 1365.43 12.9266 1361.25 11.7996C1359.16 11.2396 1357.26 11.0051 1355.71 11.1346C1354.16 11.2641 1353.18 11.7436 1352.62 12.3981C1352.01 13.1051 1351.59 14.3336 1351.55 16.1081C1351.51 17.8511 1351.84 19.9301 1352.53 22.1001ZM1348.05 16.0276C1348.1 13.8401 1348.62 11.6946 1349.95 10.1336C1351.32 8.52358 1353.34 7.82708 1355.41 7.64858C1357.5 7.47358 1359.83 7.79908 1362.15 8.42558C1366.8 9.67508 1371.78 12.2441 1375.26 15.2086C1378.77 18.1976 1381.17 21.9356 1382.15 25.6316C1383.13 29.3206 1382.72 33.1496 1380.32 35.9776C1379.14 37.3533 1377.7 38.4773 1376.08 39.2821C1374.46 40.0869 1372.7 40.5558 1370.89 40.6606C1366.97 40.9161 1362.56 39.6036 1358.02 36.2506C1353.83 33.1426 1350.75 28.0326 1349.19 23.1606C1348.41 20.7106 1347.99 18.2396 1348.05 16.0206" fill="#0FA958"/>
<path fill-rule="evenodd" clip-rule="evenodd" d="M1404.86 32.1889C1403.15 36.1194 1400.3 39.9204 1396.94 41.7719C1389.18 46.0419 1383.72 42.7869 1381.83 39.7734C1381.03 38.5029 1380.86 36.1544 1381.86 33.4034C1382.84 30.7259 1384.84 27.9819 1387.84 26.1024C1390.93 24.1704 1395.24 22.8229 1399.06 22.4274C1400.97 22.2349 1402.65 22.2874 1403.94 22.5674C1405.28 22.8579 1405.9 23.3269 1406.13 23.6944C1406.41 24.1354 1406.62 25.1364 1406.43 26.7849C1406.24 28.3599 1405.71 30.2464 1404.86 32.1889ZM1409.9 27.2014C1410.13 25.2974 1410.02 23.3059 1409.1 21.8359C1408.13 20.2959 1406.41 19.5224 1404.69 19.1479C1402.92 18.7629 1400.84 18.7279 1398.7 18.9484C1394.44 19.3859 1389.59 20.8734 1385.98 23.1379C1382.58 25.2616 1379.98 28.4481 1378.58 32.2029C1377.38 35.4894 1377.27 39.0839 1378.86 41.6284C1381.75 46.2449 1389.27 49.9899 1398.63 44.8379C1402.91 42.4789 1406.18 37.9184 1408.07 33.5854C1409.02 31.3979 1409.66 29.1789 1409.9 27.2014" fill="#0FA958"/>
<path fill-rule="evenodd" clip-rule="evenodd" d="M1375.35 36.6932C1373.12 33.9004 1370.54 31.4034 1367.68 29.2627L1365.16 27.3727C1364.98 27.2348 1364.82 27.062 1364.71 26.8643C1364.59 26.6665 1364.51 26.4476 1364.48 26.2201C1364.45 25.9926 1364.46 25.761 1364.52 25.5383C1364.57 25.3157 1364.67 25.1065 1364.81 24.9227C1364.95 24.7388 1365.12 24.5839 1365.32 24.4668C1365.52 24.3497 1365.74 24.2727 1365.96 24.2402C1366.19 24.2077 1366.42 24.2204 1366.65 24.2774C1366.87 24.3344 1367.08 24.4348 1367.26 24.5727L1369.78 26.4627C1372.87 28.7832 1375.66 31.4852 1378.08 34.5057C1378.35 34.8692 1378.47 35.3247 1378.41 35.7758C1378.36 36.2269 1378.13 36.6381 1377.77 36.9224C1377.42 37.2067 1376.96 37.3418 1376.51 37.299C1376.06 37.2562 1375.64 37.0389 1375.35 36.6932ZM1383.2 42.9617C1385.43 40.7304 1387.91 38.7579 1390.58 37.0817L1393.39 35.3317C1393.58 35.2099 1393.75 35.0509 1393.89 34.8638C1394.02 34.6766 1394.11 34.4651 1394.17 34.2412C1394.22 34.0172 1394.22 33.7853 1394.19 33.5587C1394.15 33.332 1394.07 33.115 1393.94 32.9202C1393.82 32.7253 1393.66 32.5563 1393.48 32.4229C1393.29 32.2894 1393.08 32.1941 1392.85 32.1425C1392.63 32.0908 1392.4 32.0837 1392.17 32.1217C1391.95 32.1596 1391.73 32.2419 1391.53 32.3637L1388.73 34.1137C1385.83 35.9291 1383.15 38.066 1380.73 40.4837C1380.4 40.8118 1380.21 41.257 1380.21 41.7214C1380.21 42.1858 1380.4 42.6313 1380.72 42.9599C1381.05 43.2885 1381.5 43.4733 1381.96 43.4736C1382.43 43.474 1382.87 43.2898 1383.2 42.9617Z" fill="#0FA958"/>
</svg>
